<svg xmlns="http://www.w3.org/2000/svg" viewBox="0 0 275.25 268.31"><defs><style>.cls-1{fill:#00005b;}.cls-2{fill:#99f;}</style></defs><title>efter effects</title><g id="Livello_2" data-name="Livello 2"><g id="Livello_1-2" data-name="Livello 1"><path class="cls-1" d="M275.25,45.85V222.72c-.23,2.25-.17,4.53-.45,6.79A38.18,38.18,0,0,1,270.11,243,49.26,49.26,0,0,1,248,264.19a35.64,35.64,0,0,1-16.35,4,.76.76,0,0,0-.62.13H44.52c-1.32-.24-2.67-.19-4-.32-8.11-.79-15.1-4.25-21.49-9.06A48.62,48.62,0,0,1,4.41,241.09a44,44,0,0,1-3.72-11,63.54,63.54,0,0,1-.56-6.9.68.68,0,0,0-.13-.48V45.59A39.18,39.18,0,0,0,.41,40.4,36.45,36.45,0,0,1,3.55,29.27a47.81,47.81,0,0,1,9.88-14.84A49.56,49.56,0,0,1,32,2.37,37.78,37.78,0,0,1,45,.13c.3,0,.62.09.88-.13H229.68c1.95.22,3.92.23,5.88.41A36.2,36.2,0,0,1,245.8,3.3a46.81,46.81,0,0,1,15.28,10.14,48.52,48.52,0,0,1,13.39,23.31,34.93,34.93,0,0,1,.65,6.78A7.84,7.84,0,0,0,275.25,45.85Z"/><path class="cls-2" d="M89.06,69.11h14c1.78,0,1.83.06,2.43,1.74l41.13,115a9.43,9.43,0,0,1,.49,1.62c.15.84-.16,1.23-1,1.35a9.09,9.09,0,0,1-1.17,0H122.55c-1.77,0-2.08-.22-2.65-1.9q-4.29-12.49-8.56-25c-.44-1.31-.45-1.31-1.88-1.31H69.79a7,7,0,0,1-.92,0c-.65-.08-.9.25-1.09.84-.74,2.41-1.54,4.82-2.31,7.22q-3,9.22-5.95,18.43c-.63,1.95-.92,2.16-3,2.16H36.74c-2.62,0-3-.45-2.09-2.92l8.46-24.21q14-40.1,28-80.18a33.18,33.18,0,0,0,2-11.14c0-1.43.26-1.67,1.69-1.67Z"/><path class="cls-2" d="M227.85,176.1c0,2.75,0,5.5,0,8.25a2.85,2.85,0,0,1-2.05,3.07,60.88,60.88,0,0,1-14,3.58,85,85,0,0,1-19.19.5,45.21,45.21,0,0,1-20-6,39.12,39.12,0,0,1-17.24-21.67,57.18,57.18,0,0,1,1.3-40.84,42.49,42.49,0,0,1,20.47-22.42,33.53,33.53,0,0,1,11.11-3.29A57.62,57.62,0,0,1,202,97c8.8,1,16.71,4,22.92,10.56a38.68,38.68,0,0,1,8.71,15.35,49.11,49.11,0,0,1,2,17.59c-.13,2.66-.26,5.32-.62,8-.15,1.1-.64,1.69-1.61,1.73-3,.12-6.08.59-9.14.56-1.84,0-3.66,0-5.49-.21-1.65-.15-3.31-.2-5-.21H179.84c-1.68,0-1.67,0-1.35,1.66a27.91,27.91,0,0,0,1,3.79,18.7,18.7,0,0,0,11.56,12,37.42,37.42,0,0,0,15.65,2.41,86.15,86.15,0,0,0,16.13-2.46,26.5,26.5,0,0,0,4.08-1.39c.58-.24.83-.05.89.5a9.21,9.21,0,0,1,0,1C227.86,170.6,227.85,173.35,227.85,176.1Z"/><path class="cls-1" d="M89.08,90.19c.29.21.3.59.39.89,4.28,15.67,9.46,31.07,14.35,46.66H75c-.24-.27-.12-.52,0-.76,3.77-10.69,6.59-21.68,10.12-32.45,1.46-4.48,2.62-9,3.64-13.64C88.79,90.66,88.72,90.36,89.08,90.19Z"/><path class="cls-1" d="M194.82,133.55H178.91c-.44,0-.65-.19-.58-.63s.16-1.13.28-1.68a19.62,19.62,0,0,1,5.19-10.08,16,16,0,0,1,11.07-4.6,16.19,16.19,0,0,1,8.83,1.86,15,15,0,0,1,7.9,13.14,1.28,1.28,0,0,1-1,1.46,7.78,7.78,0,0,1-2,.41C203.71,133.68,198.83,133.47,194.82,133.55Z"/></g></g></svg>